<svg id="svg" version="1.1" xmlns="http://www.w3.org/2000/svg" xmlns:xlink="http://www.w3.org/1999/xlink" width="400" height="349.7835497835498" viewBox="0, 0, 400,349.7835497835498"><g id="svgg"><path id="path0" d="M87.489 97.164 C 69.968 99.788,58.155 109.976,55.142 125.059 C 54.119 130.184,54.635 141.418,56.009 143.915 C 56.193 144.249,56.343 144.736,56.343 144.997 C 56.343 145.951,59.300 151.425,61.142 153.881 C 66.314 160.776,74.239 165.551,83.640 167.434 C 85.276 167.762,87.274 168.176,88.081 168.354 C 101.824 171.394,121.181 163.445,128.635 151.701 C 131.989 146.415,132.011 146.599,127.862 145.198 C 126.155 144.622,124.287 143.948,123.710 143.700 C 119.370 141.835,118.756 141.873,117.588 144.074 C 108.359 161.472,79.337 161.211,71.234 143.657 C 70.879 142.887,70.462 141.997,70.308 141.679 C 68.332 137.599,68.329 127.750,70.302 123.588 C 72.553 118.841,73.129 117.956,75.576 115.482 C 86.494 104.444,108.540 106.682,114.745 119.456 C 115.728 121.482,115.429 121.493,121.956 119.190 C 124.456 118.307,126.773 117.585,127.105 117.585 C 128.571 117.585,128.276 114.212,126.676 112.686 C 126.576 112.590,126.210 112.067,125.865 111.525 C 124.056 108.684,115.780 101.487,114.323 101.487 C 114.207 101.487,112.965 100.963,111.562 100.323 C 105.444 97.529,94.574 96.103,87.489 97.164 " stroke="none" fill="#2a5e94" fill-rule="evenodd"></path><path id="path1" d="M80.140 213.648 C 79.900 213.937,79.237 214.173,78.665 214.173 C 78.093 214.173,77.225 214.488,76.736 214.873 C 76.247 215.258,75.620 215.573,75.343 215.573 C 75.067 215.573,74.604 215.809,74.316 216.098 C 74.027 216.387,73.516 216.623,73.179 216.623 C 72.326 216.623,66.492 222.657,66.492 223.540 C 66.492 223.929,66.255 224.338,65.967 224.449 C 65.678 224.559,65.442 224.940,65.442 225.294 C 65.442 225.648,65.211 226.244,64.928 226.617 C 64.306 227.440,64.141 239.524,64.747 239.898 C 64.943 240.019,65.342 240.698,65.635 241.406 C 66.262 242.921,73.647 250.219,74.553 250.219 C 74.884 250.219,75.351 250.455,75.591 250.744 C 75.842 251.046,76.605 251.269,77.394 251.269 C 78.287 251.269,78.832 251.451,78.964 251.794 C 79.089 252.121,79.623 252.318,80.385 252.318 C 81.074 252.318,81.991 252.623,82.494 253.018 C 82.984 253.403,83.897 253.718,84.524 253.718 C 85.215 253.718,85.744 253.925,85.866 254.243 C 86.009 254.616,86.603 254.771,87.916 254.779 C 88.983 254.786,90.051 255.008,90.443 255.304 C 90.817 255.587,91.860 255.818,92.762 255.818 C 93.793 255.818,94.564 256.013,94.838 256.343 C 95.078 256.632,95.741 256.868,96.313 256.868 C 96.885 256.868,97.753 257.183,98.242 257.568 C 98.732 257.953,99.426 258.268,99.785 258.268 C 100.144 258.268,100.437 258.413,100.437 258.590 C 100.437 258.767,100.884 259.010,101.430 259.130 C 102.452 259.355,104.987 261.734,104.987 262.470 C 104.987 262.698,105.321 263.353,105.729 263.927 C 106.612 265.166,106.502 267.954,105.549 268.487 C 105.240 268.660,104.987 269.155,104.987 269.588 C 104.987 270.587,102.586 272.966,101.577 272.966 C 101.162 272.966,100.696 273.163,100.542 273.403 C 99.341 275.281,87.085 276.513,85.739 274.891 C 85.500 274.602,85.108 274.366,84.869 274.366 C 84.630 274.366,84.033 274.051,83.544 273.666 C 83.055 273.281,82.382 272.966,82.049 272.966 C 81.209 272.966,74.191 265.806,74.191 264.949 C 74.191 263.255,71.266 262.314,69.737 263.517 C 69.247 263.902,68.435 264.222,67.932 264.228 C 67.428 264.234,66.711 264.470,66.337 264.753 C 65.964 265.036,65.168 265.267,64.570 265.267 C 63.972 265.267,63.306 265.443,63.092 265.657 C 62.877 265.872,62.334 266.230,61.884 266.453 C 60.895 266.943,60.529 268.999,61.374 269.323 C 61.663 269.434,61.998 269.973,62.118 270.521 C 62.239 271.069,62.563 271.705,62.840 271.935 C 63.116 272.164,63.342 272.611,63.342 272.927 C 63.342 273.520,70.274 280.665,70.849 280.665 C 71.415 280.665,74.119 282.082,74.555 282.607 C 74.787 282.886,75.331 283.115,75.766 283.115 C 76.200 283.115,76.751 283.351,76.990 283.640 C 77.230 283.928,77.702 284.164,78.040 284.164 C 78.378 284.164,78.851 284.401,79.090 284.689 C 79.364 285.019,80.135 285.214,81.166 285.214 C 82.068 285.214,83.112 285.446,83.485 285.728 C 84.504 286.499,100.849 286.509,101.487 285.739 C 101.733 285.443,102.496 285.214,103.237 285.214 C 103.978 285.214,104.741 284.985,104.987 284.689 C 105.226 284.401,105.699 284.164,106.037 284.164 C 106.375 284.164,106.847 283.928,107.087 283.640 C 107.326 283.351,107.719 283.115,107.960 283.115 C 108.496 283.115,111.553 281.433,111.828 280.987 C 111.938 280.810,112.308 280.665,112.652 280.665 C 113.428 280.665,116.185 277.931,116.185 277.162 C 116.185 276.851,116.658 276.144,117.235 275.591 C 117.813 275.037,118.285 274.318,118.285 273.993 C 118.285 273.668,118.521 273.205,118.810 272.966 C 119.099 272.726,119.335 272.265,119.335 271.940 C 119.335 271.615,119.566 271.044,119.849 270.671 C 120.246 270.146,120.363 268.837,120.363 264.917 C 120.363 260.997,120.246 259.688,119.849 259.163 C 119.566 258.790,119.335 258.216,119.335 257.888 C 119.335 257.561,119.099 257.202,118.810 257.091 C 118.521 256.981,118.285 256.547,118.285 256.129 C 118.285 255.203,113.631 250.569,112.702 250.569 C 112.355 250.569,111.876 250.332,111.636 250.044 C 111.396 249.755,111.005 249.519,110.765 249.519 C 110.526 249.519,109.930 249.204,109.441 248.819 C 108.951 248.434,108.320 248.119,108.037 248.119 C 107.754 248.119,107.326 247.883,107.087 247.594 C 106.835 247.291,106.072 247.069,105.283 247.069 C 104.390 247.069,103.845 246.887,103.714 246.544 C 103.572 246.174,102.982 246.016,101.712 246.008 C 100.688 246.002,99.620 245.776,99.233 245.483 C 98.860 245.201,98.133 244.969,97.618 244.969 C 97.103 244.969,96.282 244.654,95.793 244.269 C 95.221 243.820,94.359 243.566,93.383 243.558 C 92.547 243.552,91.558 243.316,91.184 243.033 C 90.811 242.751,90.003 242.520,89.390 242.520 C 88.776 242.520,88.079 242.283,87.839 241.995 C 87.599 241.706,86.990 241.470,86.484 241.471 C 85.142 241.472,82.774 240.139,80.623 238.172 L 78.740 236.449 78.740 232.933 L 78.740 229.417 80.741 227.394 C 82.339 225.780,82.966 225.372,83.848 225.372 C 84.456 225.372,85.150 225.136,85.389 224.847 C 86.006 224.104,92.958 224.113,93.943 224.858 C 94.316 225.141,95.124 225.372,95.737 225.372 C 96.350 225.372,97.048 225.608,97.288 225.897 C 97.527 226.185,97.948 226.422,98.223 226.422 C 98.968 226.422,103.937 231.346,103.937 232.084 C 103.937 234.002,107.982 235.295,109.329 233.807 C 109.726 233.368,110.432 233.066,111.078 233.060 C 111.674 233.054,112.467 232.817,112.840 232.535 C 113.214 232.252,114.249 232.021,115.141 232.021 C 117.508 232.021,119.588 229.018,117.930 227.993 C 117.735 227.872,117.355 227.247,117.086 226.603 C 116.817 225.960,116.284 225.120,115.901 224.737 C 115.518 224.354,115.103 223.720,114.979 223.328 C 114.637 222.253,111.074 218.723,110.330 218.723 C 109.972 218.723,109.292 218.257,108.820 217.688 C 108.348 217.118,107.716 216.646,107.416 216.638 C 107.116 216.630,106.565 216.392,106.191 216.109 C 105.818 215.827,105.300 215.590,105.042 215.584 C 104.784 215.578,104.172 215.258,103.683 214.873 C 103.193 214.488,102.280 214.173,101.653 214.173 C 100.962 214.173,100.433 213.966,100.311 213.648 C 100.138 213.199,98.701 213.123,90.343 213.123 C 82.088 213.123,80.508 213.205,80.140 213.648 " stroke="none" fill="#d4a538" fill-rule="evenodd"></path><path id="path2" d="M78.392 64.563 C 78.076 65.393,77.913 65.442,75.445 65.442 C 74.008 65.442,72.748 65.578,72.645 65.745 C 72.541 65.912,71.711 66.133,70.798 66.236 C 69.886 66.339,69.082 66.596,69.011 66.807 C 68.941 67.019,68.542 67.197,68.125 67.203 C 67.708 67.209,67.061 67.445,66.687 67.728 C 66.314 68.010,65.734 68.241,65.399 68.241 C 65.063 68.241,64.689 68.556,64.567 68.941 C 64.411 69.434,64.037 69.641,63.308 69.641 C 62.708 69.641,62.185 69.863,62.069 70.166 C 61.958 70.455,61.491 70.691,61.030 70.691 C 60.569 70.691,60.192 70.838,60.192 71.018 C 60.192 71.197,59.886 71.441,59.510 71.560 C 59.135 71.679,58.731 72.084,58.612 72.459 C 58.493 72.834,58.086 73.141,57.708 73.141 C 57.330 73.141,56.930 73.377,56.819 73.666 C 56.709 73.955,56.438 74.196,56.218 74.202 C 55.567 74.221,54.243 75.483,54.243 76.084 C 54.243 76.390,54.007 76.640,53.718 76.640 C 53.430 76.640,53.193 76.877,53.193 77.165 C 53.193 77.454,52.997 77.696,52.756 77.702 C 52.162 77.718,50.744 78.932,50.744 79.425 C 50.744 79.644,50.350 80.188,49.869 80.634 C 49.388 81.080,48.994 81.781,48.994 82.192 C 48.994 82.674,48.774 82.940,48.374 82.940 C 47.990 82.940,47.425 83.571,46.887 84.602 C 46.410 85.516,45.901 86.317,45.757 86.381 C 45.612 86.445,45.494 87.025,45.494 87.669 C 45.494 88.617,45.344 88.862,44.707 88.952 C 44.103 89.038,43.894 89.330,43.810 90.201 C 43.750 90.827,43.553 91.339,43.372 91.339 C 43.192 91.339,43.045 91.642,43.045 92.013 C 43.045 92.385,42.808 92.925,42.520 93.213 C 42.231 93.502,41.995 94.325,41.995 95.043 C 41.995 95.895,41.691 96.745,41.120 97.494 C 40.409 98.426,40.245 99.039,40.245 100.764 C 40.245 101.946,40.090 102.887,39.895 102.887 C 39.410 102.887,39.410 275.291,39.895 275.591 C 40.087 275.710,40.248 276.624,40.251 277.623 C 40.256 279.099,40.420 279.595,41.126 280.264 C 41.811 280.914,41.995 281.436,41.995 282.734 C 41.995 283.640,42.226 284.686,42.509 285.060 C 42.791 285.434,43.027 286.015,43.033 286.352 C 43.040 286.689,43.202 286.964,43.395 286.964 C 43.587 286.964,43.745 287.512,43.745 288.182 C 43.745 289.190,43.896 289.438,44.619 289.620 C 45.237 289.775,45.494 290.078,45.494 290.648 C 45.494 291.783,46.516 293.600,47.857 294.847 C 48.482 295.429,48.994 296.099,48.994 296.334 C 48.994 296.570,49.151 296.763,49.344 296.763 C 49.536 296.763,49.694 297.004,49.694 297.299 C 49.694 297.594,49.930 297.925,50.219 298.036 C 50.507 298.147,50.744 298.528,50.744 298.883 C 50.744 299.237,50.959 299.654,51.221 299.808 C 52.367 300.479,54.243 302.172,54.243 302.534 C 54.243 303.059,56.162 304.462,56.879 304.462 C 57.470 304.462,58.440 305.257,58.447 305.749 C 58.451 306.034,60.300 307.356,61.895 308.216 C 62.350 308.461,63.081 308.661,63.520 308.661 C 63.958 308.661,64.408 308.898,64.519 309.186 C 64.629 309.475,65.081 309.711,65.523 309.711 C 65.971 309.711,66.616 310.098,66.983 310.586 C 67.410 311.155,67.983 311.461,68.620 311.461 C 69.159 311.461,69.697 311.619,69.816 311.811 C 69.935 312.003,70.664 312.161,71.437 312.161 C 72.218 312.161,73.074 312.394,73.366 312.686 C 73.754 313.074,74.705 313.211,77.015 313.211 C 79.526 313.211,80.140 313.312,80.140 313.723 C 80.140 314.832,81.482 314.961,93.088 314.961 C 104.695 314.961,106.037 314.832,106.037 313.723 C 106.037 313.314,106.624 313.211,108.944 313.211 C 110.959 313.211,112.061 313.053,112.532 312.697 C 112.905 312.414,113.792 312.178,114.503 312.172 C 115.213 312.166,115.892 312.003,116.010 311.811 C 116.129 311.619,116.773 311.461,117.440 311.461 C 118.411 311.461,118.719 311.287,118.985 310.586 C 119.235 309.929,119.572 309.711,120.339 309.711 C 120.924 309.711,121.446 309.487,121.561 309.186 C 121.672 308.898,122.137 308.661,122.595 308.661 C 123.840 308.661,125.423 307.755,127.211 306.017 C 128.091 305.162,129.046 304.462,129.333 304.462 C 129.621 304.462,129.946 304.226,130.057 303.937 C 130.168 303.648,130.562 303.412,130.932 303.412 C 131.302 303.412,131.708 303.136,131.834 302.800 C 132.132 302.000,134.203 299.913,134.698 299.913 C 134.910 299.913,135.083 299.761,135.083 299.575 C 135.083 299.389,135.556 298.699,136.133 298.041 C 136.710 297.384,137.183 296.618,137.183 296.340 C 137.183 296.062,137.734 295.375,138.408 294.813 C 139.081 294.252,139.638 293.555,139.644 293.265 C 139.650 292.976,139.886 292.433,140.169 292.059 C 140.451 291.685,140.682 291.016,140.682 290.572 C 140.682 290.127,140.829 289.764,141.007 289.764 C 141.626 289.764,142.432 288.660,142.432 287.814 C 142.432 287.347,142.590 286.964,142.782 286.964 C 142.975 286.964,143.132 286.587,143.132 286.127 C 143.132 285.666,143.368 285.199,143.657 285.088 C 144.017 284.950,144.182 284.387,144.182 283.301 C 144.182 282.428,144.339 281.715,144.532 281.715 C 144.738 281.715,144.882 280.490,144.882 278.740 C 144.882 275.800,144.892 275.766,145.757 275.766 L 146.633 275.766 146.545 189.239 L 146.457 102.712 145.669 102.600 C 144.924 102.494,144.882 102.331,144.882 99.538 C 144.882 97.805,144.738 96.588,144.532 96.588 C 144.339 96.588,144.182 95.874,144.182 95.002 C 144.182 93.915,144.017 93.353,143.657 93.215 C 143.368 93.104,143.132 92.637,143.132 92.176 C 143.132 91.715,142.975 91.339,142.782 91.339 C 142.590 91.339,142.432 90.859,142.432 90.272 C 142.432 89.584,142.122 88.918,141.557 88.395 C 141.076 87.949,140.682 87.339,140.682 87.041 C 140.682 86.742,140.557 86.445,140.403 86.381 C 140.250 86.317,139.805 85.634,139.415 84.864 C 139.025 84.094,138.363 83.309,137.944 83.119 C 137.525 82.929,137.183 82.475,137.183 82.109 C 137.183 81.744,136.805 81.095,136.343 80.667 C 135.881 80.239,135.446 79.593,135.377 79.231 C 135.307 78.869,134.948 78.515,134.579 78.444 C 133.803 78.295,132.983 77.560,132.983 77.015 C 132.983 76.809,132.758 76.640,132.483 76.640 C 132.207 76.640,131.932 76.288,131.870 75.857 C 131.808 75.419,131.464 75.017,131.092 74.946 C 130.725 74.876,130.018 74.441,129.521 73.980 C 129.023 73.518,128.504 73.141,128.367 73.141 C 128.230 73.141,127.582 72.590,126.928 71.916 C 126.274 71.242,125.417 70.691,125.024 70.691 C 124.631 70.691,124.219 70.455,124.108 70.166 C 123.991 69.861,123.467 69.641,122.858 69.641 C 122.182 69.641,121.682 69.402,121.450 68.970 C 121.252 68.601,120.617 68.194,120.038 68.067 C 119.459 67.940,118.985 67.691,118.985 67.514 C 118.985 67.337,118.605 67.192,118.139 67.192 C 117.674 67.192,117.236 67.019,117.166 66.807 C 117.095 66.596,116.291 66.339,115.379 66.236 C 114.466 66.133,113.635 65.912,113.532 65.745 C 113.429 65.578,112.105 65.442,110.590 65.442 C 108.000 65.442,107.829 65.395,107.723 64.654 L 107.612 63.867 93.169 63.776 L 78.726 63.684 78.392 64.563 M169.379 116.010 L 169.379 168.329 177.078 168.329 L 184.777 168.329 184.777 116.010 L 184.777 63.692 177.078 63.692 L 169.379 63.692 169.379 116.010 M296.133 64.112 C 295.810 64.435,295.713 76.532,295.713 116.430 L 295.713 168.329 303.402 168.329 L 311.090 168.329 311.188 163.898 L 311.286 159.467 312.598 160.742 C 313.320 161.443,313.911 162.256,313.911 162.548 C 313.911 162.841,314.140 163.080,314.420 163.080 C 314.700 163.080,315.312 163.463,315.781 163.931 C 316.249 164.400,317.201 164.890,317.896 165.020 C 318.818 165.193,319.160 165.436,319.160 165.918 C 319.160 166.282,319.379 166.579,319.648 166.579 C 319.916 166.579,320.226 166.815,320.337 167.104 C 320.469 167.451,321.018 167.629,321.949 167.629 C 322.725 167.629,323.360 167.787,323.360 167.979 C 323.360 168.171,324.136 168.329,325.085 168.329 C 326.608 168.329,326.824 168.421,326.922 169.116 L 327.034 169.904 336.658 169.904 L 346.282 169.904 346.627 169.116 C 346.916 168.458,347.247 168.329,348.639 168.329 C 349.556 168.329,350.306 168.171,350.306 167.979 C 350.306 167.787,350.846 167.629,351.506 167.629 C 352.166 167.629,352.942 167.393,353.231 167.104 C 353.520 166.815,354.018 166.579,354.338 166.579 C 354.659 166.579,355.004 166.262,355.105 165.875 C 355.206 165.488,355.664 165.078,356.122 164.963 C 356.580 164.848,356.955 164.613,356.955 164.442 C 356.955 164.270,357.275 164.129,357.666 164.129 C 358.057 164.129,358.468 163.893,358.579 163.605 C 358.689 163.316,358.999 163.080,359.268 163.080 C 359.536 163.080,359.755 162.838,359.755 162.544 C 359.755 162.249,360.031 161.905,360.367 161.780 C 361.093 161.509,363.255 159.430,363.255 159.003 C 363.255 158.839,363.806 158.265,364.479 157.728 C 365.153 157.190,365.704 156.442,365.704 156.066 C 365.704 155.689,365.859 155.381,366.048 155.381 C 366.236 155.381,366.490 154.987,366.610 154.506 C 366.731 154.024,366.968 153.631,367.138 153.631 C 367.748 153.631,369.204 150.826,369.204 149.651 C 369.204 148.912,369.404 148.380,369.729 148.255 C 370.017 148.144,370.254 147.655,370.254 147.168 C 370.254 146.680,370.544 145.992,370.898 145.637 C 371.318 145.217,371.623 144.220,371.775 142.766 C 371.903 141.540,372.164 140.382,372.356 140.190 C 372.808 139.738,372.825 124.351,372.374 124.072 C 372.193 123.960,371.935 122.764,371.802 121.414 C 371.634 119.701,371.380 118.831,370.962 118.535 C 370.624 118.295,370.274 117.429,370.156 116.543 C 370.042 115.681,369.781 114.920,369.576 114.852 C 369.371 114.783,369.204 114.400,369.204 113.999 C 369.204 112.721,368.067 110.586,367.387 110.586 C 366.950 110.586,366.754 110.323,366.754 109.736 C 366.754 109.269,366.518 108.650,366.229 108.361 C 365.941 108.073,365.704 107.748,365.704 107.641 C 365.704 107.149,364.436 106.037,363.877 106.037 C 363.443 106.037,363.255 105.766,363.255 105.145 C 363.255 104.245,360.583 101.137,359.810 101.137 C 359.605 101.137,359.040 100.741,358.555 100.256 C 358.070 99.770,357.197 99.278,356.614 99.162 C 356.032 99.045,355.556 98.819,355.556 98.658 C 355.556 97.857,353.573 96.588,352.322 96.588 C 351.598 96.588,351.006 96.430,351.006 96.238 C 351.006 96.045,350.219 95.888,349.256 95.888 C 347.953 95.888,347.507 95.757,347.507 95.375 C 347.507 94.308,346.147 94.138,337.610 94.138 C 329.037 94.138,326.859 94.427,326.859 95.564 C 326.859 95.742,326.160 95.888,325.305 95.888 C 324.450 95.888,323.654 96.045,323.535 96.238 C 323.416 96.430,322.945 96.588,322.489 96.588 C 322.033 96.588,321.424 96.824,321.135 97.113 C 320.846 97.402,320.450 97.638,320.255 97.638 C 320.060 97.638,319.694 97.930,319.442 98.288 C 319.191 98.645,318.631 99.049,318.198 99.186 C 317.765 99.323,317.410 99.582,317.410 99.761 C 317.410 99.941,317.184 100.087,316.907 100.087 C 316.630 100.087,315.212 101.274,313.757 102.725 L 311.111 105.362 311.111 84.527 L 311.111 63.692 303.832 63.692 C 298.637 63.692,296.433 63.812,296.133 64.112 M208.235 123.622 C 208.245 147.454,208.319 151.452,208.760 152.035 C 209.043 152.409,209.274 153.226,209.274 153.852 C 209.274 154.478,209.431 155.087,209.624 155.206 C 209.816 155.325,209.974 155.806,209.974 156.276 C 209.974 156.954,210.154 157.130,210.849 157.130 C 211.600 157.130,211.725 157.291,211.735 158.268 C 211.746 159.436,212.401 160.630,213.031 160.630 C 213.226 160.630,213.481 161.106,213.597 161.688 C 213.714 162.270,214.084 162.852,214.421 162.981 C 214.757 163.110,215.369 163.579,215.780 164.023 C 216.192 164.466,216.639 164.829,216.775 164.829 C 216.911 164.829,217.769 165.459,218.682 166.229 C 219.595 166.999,220.599 167.629,220.912 167.629 C 221.225 167.629,221.578 167.787,221.697 167.979 C 221.816 168.171,222.466 168.329,223.141 168.329 C 223.911 168.329,224.796 168.655,225.516 169.204 L 226.663 170.079 235.557 170.079 L 244.452 170.079 245.395 169.204 C 245.914 168.723,246.739 168.329,247.229 168.329 C 247.718 168.329,248.119 168.171,248.119 167.979 C 248.119 167.787,248.670 167.629,249.344 167.629 C 250.199 167.629,250.569 167.471,250.569 167.104 C 250.569 166.777,250.899 166.579,251.444 166.579 C 251.993 166.579,252.318 166.381,252.318 166.047 C 252.318 165.754,252.712 165.335,253.193 165.116 C 253.675 164.896,254.068 164.585,254.068 164.423 C 254.068 164.262,254.388 164.129,254.779 164.129 C 255.170 164.129,255.578 163.899,255.686 163.618 C 255.794 163.336,256.173 163.014,256.528 162.902 C 256.883 162.789,257.243 162.429,257.330 162.101 C 257.416 161.773,257.505 162.022,257.527 162.653 C 257.551 163.321,257.787 163.886,258.093 164.003 C 258.477 164.150,258.618 164.756,258.618 166.267 L 258.618 168.329 267.542 168.329 L 276.465 168.329 276.465 167.104 C 276.465 166.430,276.308 165.879,276.115 165.879 C 275.923 165.879,275.766 165.009,275.766 163.946 C 275.766 162.206,275.678 161.979,274.891 161.680 L 274.016 161.347 274.016 154.164 C 274.016 149.609,273.888 146.982,273.666 146.982 C 273.436 146.982,273.316 138.233,273.316 121.435 L 273.316 95.888 265.442 95.888 L 257.568 95.888 257.568 115.465 C 257.568 128.139,257.444 135.118,257.218 135.258 C 257.025 135.377,256.868 136.864,256.868 138.563 C 256.868 141.360,256.802 141.668,256.166 141.834 C 255.728 141.949,255.383 142.422,255.249 143.092 C 255.130 143.683,254.817 144.347,254.551 144.567 C 254.285 144.787,254.068 145.349,254.068 145.816 C 254.068 146.282,253.675 147.057,253.193 147.538 C 252.712 148.020,252.318 148.632,252.318 148.899 C 252.318 149.166,252.012 149.482,251.636 149.601 C 251.261 149.720,250.857 150.124,250.738 150.499 C 250.619 150.874,250.217 151.181,249.845 151.181 C 249.473 151.181,249.169 151.336,249.169 151.524 C 249.169 151.713,248.775 151.966,248.294 152.087 C 247.813 152.208,247.419 152.447,247.419 152.619 C 247.419 152.790,247.042 152.931,246.582 152.931 C 245.981 152.931,245.683 153.178,245.526 153.806 C 245.325 154.604,245.141 154.681,243.409 154.681 C 242.365 154.681,241.414 154.838,241.295 155.031 C 241.176 155.223,240.152 155.381,239.020 155.381 C 237.888 155.381,236.864 155.223,236.745 155.031 C 236.626 154.838,235.847 154.681,235.013 154.681 C 233.687 154.681,233.469 154.571,233.277 153.806 C 233.156 153.325,232.837 152.931,232.568 152.931 C 231.948 152.931,229.926 151.794,229.923 151.444 C 229.922 151.299,229.714 151.181,229.462 151.181 C 229.209 151.181,228.786 150.630,228.521 149.956 C 228.165 149.048,227.832 148.731,227.231 148.731 C 226.601 148.731,226.422 148.538,226.422 147.857 C 226.422 147.312,226.223 146.982,225.897 146.982 C 225.500 146.982,225.372 146.554,225.372 145.232 C 225.372 144.269,225.214 143.482,225.022 143.482 C 224.811 143.482,224.672 142.020,224.672 139.797 C 224.672 136.843,224.568 136.071,224.147 135.910 C 223.689 135.734,223.622 133.173,223.622 115.798 L 223.622 95.888 215.923 95.888 L 208.224 95.888 208.235 123.622 M105.084 96.978 C 106.666 97.384,108.119 97.839,108.311 97.987 C 108.504 98.135,109.213 98.372,109.886 98.513 C 110.560 98.653,111.269 98.889,111.461 99.035 C 111.654 99.182,112.194 99.420,112.662 99.563 C 116.711 100.808,124.050 107.000,127.162 111.797 C 130.168 116.429,130.362 117.662,128.161 118.129 C 127.638 118.240,126.815 118.543,126.334 118.801 C 125.853 119.059,124.867 119.382,124.143 119.518 C 123.419 119.653,122.741 119.904,122.635 120.075 C 122.530 120.245,122.050 120.385,121.570 120.385 C 121.090 120.385,120.036 120.680,119.228 121.041 C 117.405 121.855,115.136 122.290,115.136 121.826 C 115.136 121.638,114.929 121.277,114.676 121.022 C 114.423 120.768,113.659 119.694,112.979 118.635 C 110.585 114.909,103.750 110.236,100.694 110.236 C 100.215 110.236,99.258 110.000,98.567 109.711 C 96.863 108.999,89.784 108.999,88.539 109.711 C 88.058 109.986,87.188 110.217,86.605 110.224 C 84.977 110.243,78.816 113.529,76.870 115.416 C 69.283 122.775,67.592 135.144,72.882 144.585 C 74.092 146.744,78.395 151.531,79.126 151.531 C 79.303 151.531,80.195 152.057,81.109 152.699 C 82.023 153.341,83.163 153.955,83.642 154.063 C 84.122 154.171,84.987 154.420,85.564 154.617 C 89.949 156.106,96.752 156.558,99.563 155.545 C 100.332 155.268,101.332 155.039,101.784 155.036 C 105.630 155.011,114.061 148.646,116.411 143.994 C 117.801 141.242,119.942 140.503,121.960 142.078 C 122.152 142.228,122.856 142.468,123.523 142.611 C 124.190 142.754,124.978 143.000,125.273 143.157 C 125.568 143.314,127.187 143.855,128.870 144.358 C 133.234 145.663,133.281 146.520,129.323 152.570 C 126.831 156.379,120.764 162.380,119.405 162.380 C 119.221 162.380,118.855 162.640,118.591 162.959 C 117.576 164.183,110.936 167.000,106.212 168.212 C 101.766 169.352,86.719 169.355,81.890 168.216 C 72.388 165.976,63.860 160.082,58.765 152.231 C 57.174 149.780,55.993 147.459,55.993 146.784 C 55.993 146.494,55.776 145.908,55.511 145.482 C 53.513 142.272,52.783 128.010,54.369 123.185 C 55.252 120.498,55.964 118.629,56.546 117.469 C 56.819 116.925,57.043 116.312,57.043 116.109 C 57.043 113.028,67.667 102.739,73.491 100.178 C 76.872 98.692,76.124 98.959,82.940 96.794 C 85.719 95.910,101.439 96.041,105.084 96.978 M338.381 109.383 C 339.264 109.519,340.316 109.979,340.828 110.454 C 341.321 110.912,342.081 111.286,342.516 111.286 C 342.951 111.286,343.307 111.444,343.307 111.636 C 343.307 111.829,343.603 111.986,343.964 111.986 C 344.326 111.986,344.817 112.222,345.057 112.511 C 345.296 112.800,345.770 113.036,346.109 113.036 C 346.448 113.036,346.807 113.350,346.908 113.734 C 347.008 114.118,347.376 114.542,347.726 114.676 C 348.683 115.043,350.306 116.828,350.306 117.513 C 350.306 118.167,351.872 120.035,352.420 120.035 C 352.605 120.035,352.756 120.512,352.756 121.096 C 352.756 121.716,352.974 122.240,353.281 122.358 C 353.621 122.489,353.806 123.031,353.806 123.901 C 353.806 124.639,353.963 125.340,354.156 125.459 C 354.348 125.578,354.506 127.010,354.506 128.641 C 354.506 131.043,354.613 131.647,355.069 131.822 C 355.587 132.020,355.587 132.063,355.069 132.353 C 354.621 132.604,354.506 133.270,354.506 135.605 C 354.506 137.220,354.348 138.639,354.156 138.758 C 353.963 138.877,353.806 139.578,353.806 140.316 C 353.806 141.185,353.621 141.728,353.281 141.859 C 352.974 141.977,352.756 142.501,352.756 143.121 C 352.756 143.705,352.605 144.182,352.420 144.182 C 351.872 144.182,350.306 146.050,350.306 146.704 C 350.306 147.373,348.722 149.131,347.557 149.755 C 347.144 149.975,346.807 150.387,346.807 150.668 C 346.807 150.950,346.583 151.181,346.310 151.181 C 345.726 151.181,343.534 152.288,343.365 152.668 C 343.301 152.813,342.875 152.931,342.419 152.931 C 341.963 152.931,341.195 153.325,340.714 153.806 C 340.074 154.446,339.466 154.681,338.444 154.681 C 337.677 154.681,336.952 154.838,336.833 155.031 C 336.714 155.223,335.612 155.381,334.383 155.381 C 333.155 155.381,332.052 155.223,331.934 155.031 C 331.815 154.838,330.792 154.681,329.662 154.681 C 327.914 154.681,327.573 154.576,327.384 153.982 C 327.262 153.597,326.740 153.182,326.223 153.058 C 325.707 152.935,325.127 152.717,324.934 152.573 C 324.742 152.429,324.103 152.209,323.515 152.084 C 322.927 151.958,322.223 151.546,321.950 151.168 C 321.678 150.790,321.325 150.481,321.166 150.481 C 321.007 150.481,320.512 150.087,320.066 149.606 C 319.620 149.125,318.997 148.731,318.683 148.731 C 318.368 148.731,318.110 148.495,318.110 148.206 C 318.110 147.918,317.976 147.682,317.813 147.682 C 317.650 147.682,317.221 146.967,316.861 146.094 C 316.424 145.034,315.941 144.440,315.409 144.306 C 314.774 144.147,314.611 143.863,314.611 142.919 C 314.611 142.266,314.453 141.732,314.261 141.732 C 314.068 141.732,313.911 141.200,313.911 140.550 C 313.911 139.900,313.680 139.177,313.399 138.944 C 313.039 138.645,312.857 137.622,312.787 135.489 C 312.689 132.560,312.657 132.454,311.811 132.318 L 310.936 132.177 311.811 131.953 C 312.645 131.739,312.691 131.593,312.788 128.817 C 312.857 126.846,313.055 125.740,313.401 125.395 C 313.681 125.114,313.911 124.344,313.911 123.685 C 313.911 123.025,314.068 122.485,314.261 122.485 C 314.453 122.485,314.611 121.951,314.611 121.298 C 314.611 120.358,314.775 120.070,315.401 119.913 C 315.913 119.784,316.436 119.157,316.888 118.128 C 317.271 117.256,317.703 116.541,317.848 116.539 C 317.992 116.537,318.110 116.299,318.110 116.010 C 318.110 115.719,318.421 115.486,318.810 115.486 C 319.195 115.486,319.510 115.328,319.510 115.136 C 319.510 114.943,319.713 114.786,319.962 114.786 C 320.210 114.786,320.993 114.156,321.701 113.386 C 322.552 112.460,323.288 111.986,323.874 111.986 C 324.361 111.986,324.759 111.829,324.759 111.636 C 324.759 111.444,325.142 111.286,325.609 111.286 C 326.098 111.286,326.750 110.915,327.147 110.411 C 327.733 109.666,328.122 109.536,329.776 109.536 C 330.844 109.536,331.822 109.367,331.950 109.159 C 332.184 108.781,335.143 108.884,338.381 109.383 M171.955 177.603 C 171.844 177.892,171.385 178.128,170.934 178.128 C 170.042 178.128,168.329 180.048,168.329 181.048 C 168.329 181.367,168.171 181.627,167.979 181.627 C 167.434 181.627,167.524 191.843,168.079 192.912 C 168.616 193.949,170.588 195.976,171.059 195.976 C 171.243 195.976,171.589 196.212,171.829 196.500 C 173.101 198.034,184.777 196.958,184.777 195.307 C 184.777 194.786,186.075 193.526,186.614 193.524 C 187.782 193.518,188.276 191.482,188.276 186.677 C 188.276 181.704,187.939 180.577,186.449 180.577 C 186.107 180.577,185.827 180.325,185.827 180.017 C 185.827 179.710,185.291 178.922,184.637 178.268 L 183.447 177.078 177.802 177.078 C 173.107 177.078,172.123 177.166,171.955 177.603 M169.379 246.894 C 169.379 279.479,169.317 283.815,168.854 283.815 C 168.419 283.815,168.329 284.476,168.329 287.664 C 168.329 289.997,168.191 291.514,167.979 291.514 C 167.787 291.514,167.629 291.845,167.629 292.251 C 167.629 292.656,167.235 293.297,166.754 293.676 C 166.273 294.054,165.879 294.668,165.879 295.039 C 165.879 295.410,165.654 295.713,165.379 295.713 C 165.104 295.713,164.671 295.910,164.417 296.150 C 163.121 297.376,161.908 297.638,157.742 297.591 C 155.203 297.562,153.419 297.391,153.181 297.153 C 152.967 296.939,152.417 296.763,151.961 296.763 C 151.505 296.763,150.895 296.527,150.606 296.238 C 150.258 295.889,149.384 295.713,148.006 295.713 L 145.932 295.713 145.932 302.712 C 145.932 307.592,146.049 309.711,146.319 309.711 C 146.532 309.711,147.016 310.105,147.394 310.586 C 147.889 311.215,148.419 311.461,149.282 311.461 C 149.941 311.461,150.481 311.619,150.481 311.811 C 150.481 312.036,154.091 312.161,160.609 312.161 C 166.984 312.161,170.818 312.031,170.954 311.811 C 171.073 311.619,171.794 311.461,172.558 311.461 C 173.716 311.461,174.001 311.316,174.278 310.586 C 174.499 310.005,174.880 309.711,175.410 309.711 C 175.850 309.711,176.635 309.318,177.154 308.836 C 177.673 308.355,178.311 307.962,178.572 307.962 C 179.076 307.962,180.577 306.138,180.577 305.526 C 180.577 305.326,180.735 305.162,180.927 305.162 C 181.120 305.162,181.277 304.805,181.277 304.370 C 181.277 303.884,181.582 303.444,182.065 303.233 C 182.498 303.043,182.906 302.507,182.971 302.043 C 183.037 301.579,183.313 300.977,183.584 300.706 C 183.855 300.434,184.077 299.594,184.077 298.838 C 184.077 298.081,184.234 297.463,184.427 297.463 C 184.658 297.463,184.777 282.648,184.777 253.718 L 184.777 209.974 177.078 209.974 L 169.379 209.974 169.379 246.894 M100.311 213.298 C 100.432 213.614,100.960 213.823,101.633 213.823 C 102.249 213.823,103.059 214.054,103.433 214.337 C 103.806 214.620,104.348 214.859,104.637 214.870 C 104.926 214.880,105.556 215.197,106.037 215.573 C 106.518 215.949,107.148 216.265,107.437 216.275 C 107.725 216.285,108.421 216.760,108.982 217.333 C 109.544 217.905,110.257 218.373,110.568 218.373 C 111.304 218.373,115.136 222.246,115.136 222.990 C 115.136 223.304,115.687 224.130,116.360 224.823 C 117.034 225.517,117.585 226.299,117.585 226.560 C 117.585 226.822,117.822 227.232,118.110 227.472 C 120.026 229.061,118.008 232.371,115.124 232.371 C 114.082 232.371,113.311 232.565,113.036 232.896 C 112.796 233.185,112.108 233.424,111.506 233.429 C 110.904 233.433,110.017 233.744,109.536 234.121 C 107.687 235.568,103.587 234.365,103.587 232.376 C 103.587 231.576,98.771 226.772,97.970 226.772 C 97.642 226.772,97.177 226.535,96.938 226.247 C 96.698 225.958,96.070 225.722,95.542 225.722 C 95.014 225.722,94.182 225.407,93.693 225.022 C 92.518 224.098,86.826 223.985,85.943 224.868 C 85.642 225.169,84.804 225.503,84.081 225.611 C 83.120 225.755,82.268 226.290,80.927 227.590 L 79.090 229.372 79.090 232.699 L 79.090 236.025 81.091 238.048 C 82.192 239.160,83.354 240.070,83.673 240.070 C 83.993 240.070,84.450 240.306,84.689 240.595 C 84.929 240.884,85.627 241.120,86.240 241.120 C 86.853 241.120,87.661 241.351,88.035 241.634 C 88.408 241.916,89.117 242.152,89.609 242.159 C 90.102 242.165,90.811 242.401,91.184 242.684 C 91.558 242.966,92.493 243.203,93.263 243.211 C 94.033 243.218,95.114 243.459,95.666 243.747 C 96.217 244.034,97.022 244.269,97.456 244.269 C 97.889 244.269,98.644 244.584,99.133 244.969 C 99.760 245.462,100.553 245.669,101.816 245.669 C 103.087 245.669,103.668 245.822,103.810 246.194 C 103.940 246.532,104.481 246.719,105.331 246.719 C 106.077 246.719,106.840 246.947,107.087 247.244 C 107.326 247.533,107.779 247.773,108.092 247.777 C 108.405 247.781,109.055 248.093,109.536 248.469 C 110.017 248.845,110.692 249.157,111.035 249.161 C 111.377 249.165,111.749 249.405,111.859 249.694 C 111.970 249.983,112.395 250.219,112.803 250.219 C 113.691 250.219,118.635 254.996,118.635 255.854 C 118.635 256.172,118.871 256.628,119.160 256.868 C 119.449 257.108,119.685 257.547,119.685 257.846 C 119.685 258.144,119.961 258.692,120.297 259.063 C 121.318 260.189,121.408 269.207,120.412 270.554 C 120.012 271.095,119.685 271.756,119.685 272.022 C 119.685 273.571,114.323 281.015,113.208 281.015 C 112.996 281.015,112.285 281.411,111.629 281.895 C 109.747 283.283,104.653 285.564,103.434 285.564 C 103.015 285.564,102.365 285.796,101.992 286.078 C 100.972 286.849,83.929 286.860,83.290 286.089 C 83.001 285.741,82.217 285.564,80.961 285.564 C 79.601 285.564,79.011 285.416,78.867 285.039 C 78.756 284.751,78.388 284.514,78.050 284.514 C 77.712 284.514,77.034 284.199,76.545 283.815 C 76.056 283.430,75.513 283.115,75.339 283.115 C 74.825 283.115,72.155 281.751,71.918 281.367 C 71.798 281.174,71.392 281.015,71.016 281.015 C 70.190 281.015,62.992 273.926,62.992 273.113 C 62.992 272.804,62.677 272.151,62.292 271.662 C 61.907 271.172,61.592 270.576,61.592 270.337 C 61.592 270.098,61.356 269.706,61.067 269.466 C 59.996 268.578,60.515 265.967,61.762 265.967 C 62.199 265.967,62.753 265.731,62.992 265.442 C 63.232 265.153,63.895 264.917,64.467 264.917 C 65.039 264.917,65.907 264.602,66.396 264.217 C 66.886 263.832,67.707 263.517,68.222 263.517 C 68.736 263.517,69.463 263.286,69.837 263.003 C 71.365 261.848,74.541 263.157,74.541 264.943 C 74.541 266.415,83.466 274.016,85.195 274.016 C 85.453 274.016,85.755 274.252,85.866 274.541 C 86.107 275.169,97.429 275.336,97.812 274.717 C 97.931 274.525,98.924 273.944,100.020 273.425 C 102.271 272.360,104.637 270.317,104.637 269.438 C 104.637 269.116,104.873 268.656,105.162 268.416 C 105.853 267.843,105.846 264.632,105.151 263.713 C 104.868 263.339,104.637 262.819,104.637 262.557 C 104.637 261.921,102.158 259.671,101.454 259.669 C 101.147 259.668,100.611 259.353,100.262 258.968 C 99.914 258.583,99.358 258.268,99.026 258.268 C 98.695 258.268,98.227 258.031,97.988 257.743 C 97.742 257.447,96.979 257.218,96.238 257.218 C 95.497 257.218,94.734 256.989,94.488 256.693 C 94.213 256.361,93.441 256.168,92.388 256.168 C 91.336 256.168,90.564 255.975,90.289 255.643 C 90.008 255.305,89.233 255.118,88.114 255.118 C 86.905 255.118,86.104 254.905,85.485 254.418 C 84.995 254.033,84.133 253.718,83.567 253.718 C 83.002 253.718,82.303 253.482,82.015 253.193 C 81.726 252.905,80.969 252.668,80.333 252.668 C 79.696 252.668,78.980 252.432,78.740 252.143 C 78.489 251.841,77.726 251.619,76.937 251.619 C 76.043 251.619,75.499 251.436,75.367 251.094 C 75.256 250.805,74.868 250.569,74.504 250.569 C 74.140 250.569,73.233 250.017,72.487 249.344 C 71.741 248.670,70.987 248.119,70.811 248.119 C 70.063 248.119,65.092 242.262,65.092 241.382 C 65.092 241.119,64.861 240.598,64.578 240.224 C 63.814 239.215,63.804 227.055,64.567 226.422 C 64.856 226.182,65.092 225.710,65.092 225.372 C 65.092 225.034,65.328 224.562,65.617 224.322 C 65.906 224.082,66.142 223.648,66.142 223.357 C 66.142 222.629,72.431 216.273,73.151 216.273 C 73.471 216.273,74.017 215.958,74.366 215.573 C 74.714 215.188,75.250 214.868,75.557 214.862 C 75.864 214.856,76.421 214.620,76.795 214.337 C 77.168 214.054,77.928 213.823,78.482 213.823 C 79.036 213.823,79.726 213.587,80.015 213.298 C 80.457 212.857,82.094 212.773,90.325 212.773 C 98.699 212.773,100.138 212.849,100.311 213.298 M295.946 213.707 C 295.544 214.109,295.671 267.333,296.075 268.089 C 296.275 268.462,296.668 268.766,296.950 268.766 C 297.332 268.766,297.463 269.213,297.463 270.516 C 297.463 271.479,297.620 272.266,297.813 272.266 C 298.005 272.266,298.163 272.822,298.163 273.502 C 298.163 274.233,298.361 274.814,298.648 274.924 C 298.916 275.026,299.224 275.560,299.334 276.110 C 299.451 276.696,299.829 277.203,300.248 277.336 C 300.641 277.460,300.962 277.788,300.962 278.064 C 300.962 278.340,301.120 278.565,301.312 278.565 C 301.505 278.565,301.662 278.794,301.662 279.073 C 301.662 279.352,301.871 279.706,302.126 279.860 C 302.381 280.014,302.697 280.431,302.828 280.786 C 302.959 281.141,303.380 281.513,303.764 281.614 C 304.148 281.714,304.462 282.014,304.462 282.281 C 304.462 282.558,304.820 282.765,305.299 282.765 C 305.760 282.765,306.227 283.001,306.338 283.290 C 306.449 283.578,306.860 283.815,307.251 283.815 C 307.728 283.815,307.962 284.044,307.962 284.514 C 307.962 284.943,308.199 285.219,308.574 285.225 C 308.911 285.232,309.492 285.468,309.866 285.750 C 310.239 286.033,311.132 286.264,311.849 286.264 C 312.581 286.264,313.216 286.456,313.298 286.702 C 313.542 287.435,331.761 287.539,333.212 286.815 C 333.819 286.512,334.764 286.264,335.312 286.264 C 335.860 286.264,336.308 286.124,336.308 285.953 C 336.308 285.782,336.842 285.542,337.494 285.420 C 338.266 285.275,338.744 284.956,338.861 284.506 C 338.969 284.095,339.339 283.815,339.775 283.815 C 340.193 283.815,340.507 283.589,340.507 283.290 C 340.507 282.963,340.838 282.765,341.382 282.765 C 341.864 282.765,342.257 282.610,342.257 282.421 C 342.257 282.233,342.651 281.979,343.132 281.858 C 343.613 281.738,344.007 281.447,344.007 281.213 C 344.007 280.979,344.401 280.417,344.882 279.965 L 345.757 279.143 345.757 280.054 C 345.757 280.555,345.993 281.201,346.282 281.490 C 346.633 281.841,346.807 282.717,346.807 284.139 L 346.807 286.264 355.567 286.264 L 364.327 286.264 364.620 285.477 C 364.993 284.472,364.782 283.929,363.930 283.707 C 363.348 283.555,363.255 283.208,363.255 281.212 C 363.255 279.474,363.123 278.843,362.730 278.692 C 362.287 278.522,362.205 277.377,362.205 271.374 C 362.205 267.008,362.070 264.175,361.855 264.042 C 361.627 263.901,361.505 255.056,361.505 238.650 L 361.505 213.473 353.631 213.473 L 345.757 213.473 345.757 233.050 C 345.757 245.724,345.633 252.703,345.407 252.843 C 345.214 252.962,345.057 254.465,345.057 256.182 C 345.057 259.221,345.033 259.310,344.182 259.524 C 343.464 259.704,343.307 259.956,343.307 260.930 C 343.307 261.583,343.150 262.117,342.957 262.117 C 342.765 262.117,342.607 262.494,342.607 262.955 C 342.607 263.415,342.371 263.883,342.082 263.994 C 341.794 264.104,341.557 264.429,341.557 264.714 C 341.557 265.000,341.006 265.768,340.332 266.423 C 339.659 267.077,339.108 267.951,339.108 268.364 C 339.108 268.933,338.895 269.116,338.233 269.116 C 337.752 269.116,337.358 269.274,337.358 269.466 C 337.358 269.659,336.964 269.816,336.483 269.816 C 335.939 269.816,335.608 270.015,335.608 270.341 C 335.608 270.668,335.278 270.866,334.733 270.866 C 334.252 270.866,333.858 271.024,333.858 271.216 C 333.858 271.409,333.292 271.566,332.599 271.566 C 331.270 271.566,328.959 272.480,328.959 273.006 C 328.959 273.176,328.093 273.316,327.034 273.316 C 325.976 273.316,325.109 273.170,325.109 272.991 C 325.109 272.285,323.948 271.566,322.810 271.566 C 322.150 271.566,321.610 271.409,321.610 271.216 C 321.610 271.024,321.235 270.866,320.778 270.866 C 320.320 270.866,319.750 270.630,319.510 270.341 C 319.270 270.052,318.925 269.816,318.742 269.816 C 318.318 269.816,317.410 268.916,317.410 268.496 C 317.410 267.897,315.816 266.317,315.212 266.317 C 314.758 266.317,314.611 266.016,314.611 265.092 C 314.611 264.418,314.453 263.867,314.261 263.867 C 314.068 263.867,313.911 263.335,313.911 262.685 C 313.911 262.035,313.675 261.307,313.386 261.067 C 312.987 260.736,312.861 259.838,312.861 257.327 C 312.861 253.937,312.524 252.668,311.624 252.668 C 311.180 252.668,311.111 250.048,311.111 233.071 L 311.111 213.473 303.645 213.473 C 299.539 213.473,296.075 213.578,295.946 213.707 M231.671 214.873 C 231.671 215.066,230.957 215.223,230.085 215.223 C 228.998 215.223,228.436 215.388,228.298 215.748 C 228.187 216.037,227.774 216.273,227.380 216.273 C 226.705 216.273,224.284 217.843,224.030 218.446 C 223.966 218.598,223.558 218.723,223.122 218.723 C 222.367 218.723,220.472 220.044,220.472 220.571 C 220.472 220.900,219.148 222.220,218.810 222.228 C 218.213 222.242,216.973 223.958,216.973 224.771 C 216.973 225.253,216.737 225.738,216.448 225.848 C 216.159 225.959,215.923 226.455,215.923 226.950 C 215.923 227.446,215.628 228.167,215.268 228.554 C 213.710 230.227,213.717 242.374,215.277 242.782 C 215.763 242.909,215.923 243.283,215.923 244.285 C 215.923 245.019,216.159 245.856,216.448 246.144 C 216.737 246.433,216.973 246.895,216.973 247.170 C 216.973 247.446,217.384 247.969,217.887 248.332 C 218.389 248.696,219.008 249.191,219.261 249.431 C 219.515 249.672,219.891 249.869,220.097 249.869 C 220.304 249.869,220.472 250.149,220.472 250.491 C 220.472 251.271,221.663 252.318,222.551 252.318 C 222.920 252.318,223.458 252.555,223.747 252.843 C 224.036 253.132,224.441 253.368,224.647 253.368 C 224.853 253.368,225.022 253.526,225.022 253.718 C 225.022 253.911,225.378 254.068,225.814 254.068 C 226.250 254.068,226.901 254.461,227.263 254.943 C 227.766 255.614,228.237 255.818,229.281 255.818 C 230.169 255.818,230.713 256.001,230.845 256.343 C 230.981 256.698,231.537 256.868,232.563 256.868 C 233.397 256.868,234.177 257.025,234.296 257.218 C 234.415 257.410,235.437 257.568,236.567 257.568 C 238.431 257.568,238.632 257.641,238.733 258.355 C 238.832 259.051,239.076 259.155,240.828 259.247 C 242.025 259.309,242.979 259.552,243.233 259.859 C 243.507 260.188,244.319 260.367,245.537 260.367 C 246.572 260.367,247.419 260.525,247.419 260.717 C 247.419 260.910,247.933 261.067,248.561 261.067 C 249.409 261.067,249.792 261.270,250.048 261.855 C 250.239 262.291,250.775 262.696,251.247 262.763 C 253.230 263.043,255.118 265.827,255.118 268.472 C 255.118 269.789,254.971 270.866,254.792 270.866 C 254.612 270.866,254.355 271.213,254.221 271.637 C 253.770 273.059,251.014 274.947,249.129 275.127 C 248.301 275.207,247.840 275.478,247.599 276.028 C 247.273 276.770,247.050 276.815,243.686 276.815 C 240.253 276.815,240.114 276.786,240.007 276.028 C 239.918 275.403,239.607 275.200,238.495 275.044 C 236.900 274.819,234.821 273.996,234.821 273.589 C 234.821 273.439,234.577 273.316,234.278 273.316 C 233.980 273.316,233.169 272.765,232.475 272.091 C 231.781 271.417,230.923 270.866,230.567 270.866 C 230.212 270.866,229.921 270.630,229.921 270.341 C 229.921 270.052,229.685 269.816,229.396 269.816 C 229.068 269.816,228.871 269.484,228.871 268.929 C 228.871 267.752,227.900 266.317,227.104 266.317 C 226.640 266.317,226.436 266.006,226.356 265.179 L 226.247 264.042 223.622 264.042 C 221.236 264.042,220.966 264.114,220.652 264.829 C 220.363 265.487,220.033 265.617,218.640 265.617 C 217.723 265.617,216.973 265.774,216.973 265.967 C 216.973 266.159,216.272 266.317,215.415 266.317 C 214.431 266.317,213.755 266.500,213.578 266.816 C 213.424 267.090,212.684 267.366,211.934 267.428 C 209.894 267.598,209.040 270.516,211.030 270.516 C 211.595 270.516,211.724 270.754,211.724 271.798 C 211.724 273.131,212.698 275.766,213.191 275.766 C 213.346 275.766,213.473 276.058,213.473 276.416 C 213.473 276.774,213.867 277.363,214.348 277.724 C 214.829 278.086,215.223 278.476,215.223 278.592 C 215.223 279.245,218.990 282.770,219.685 282.767 C 220.118 282.766,220.472 282.921,220.472 283.112 C 220.472 283.796,221.987 285.184,222.970 285.400 C 223.521 285.521,223.972 285.765,223.972 285.942 C 223.972 286.119,224.506 286.264,225.159 286.264 C 225.892 286.264,226.424 286.465,226.548 286.789 C 226.659 287.078,226.991 287.314,227.286 287.314 C 227.580 287.314,228.136 287.629,228.521 288.014 C 229.031 288.523,229.688 288.714,230.934 288.714 C 232.133 288.714,232.706 288.871,232.847 289.239 C 233.021 289.690,234.578 289.764,243.909 289.764 C 253.328 289.764,254.768 289.694,254.768 289.239 C 254.768 288.848,255.180 288.714,256.376 288.714 C 257.657 288.714,258.018 288.580,258.156 288.054 C 258.273 287.604,258.765 287.324,259.698 287.175 C 260.451 287.054,261.067 286.800,261.067 286.610 C 261.067 286.420,261.394 286.264,261.792 286.264 C 262.191 286.264,262.753 286.028,263.042 285.739 C 263.331 285.451,263.876 285.214,264.253 285.214 C 264.630 285.214,265.037 284.959,265.157 284.646 C 265.487 283.787,267.169 282.175,268.016 281.906 C 268.429 281.775,268.766 281.510,268.766 281.318 C 268.766 281.126,269.160 280.452,269.641 279.821 C 270.122 279.190,270.516 278.475,270.516 278.233 C 270.516 277.990,270.910 277.481,271.391 277.103 C 272.013 276.614,272.266 276.076,272.266 275.244 C 272.266 274.601,272.463 274.008,272.703 273.928 C 273.033 273.818,273.141 272.133,273.141 267.092 C 273.141 262.207,273.023 260.284,272.703 259.965 C 272.463 259.724,272.266 259.262,272.266 258.938 C 272.266 258.614,271.872 258.090,271.391 257.775 C 270.910 257.460,270.516 256.969,270.516 256.685 C 270.516 256.401,270.359 256.168,270.166 256.168 C 269.974 256.168,269.816 255.956,269.816 255.697 C 269.816 255.437,269.501 254.862,269.116 254.418 C 268.731 253.974,268.416 253.481,268.416 253.321 C 268.416 253.162,267.992 252.925,267.474 252.795 C 266.956 252.665,266.190 252.190,265.772 251.739 C 265.297 251.227,264.614 250.919,263.952 250.919 C 263.114 250.919,262.847 250.736,262.673 250.044 C 262.523 249.443,262.209 249.165,261.673 249.158 C 261.244 249.152,260.587 248.915,260.213 248.633 C 259.839 248.350,259.022 248.119,258.396 248.119 C 257.771 248.119,257.162 247.962,257.043 247.769 C 256.924 247.577,255.850 247.419,254.656 247.419 C 252.740 247.419,252.444 247.326,252.139 246.632 C 251.858 245.992,251.465 245.824,250.045 245.734 C 248.986 245.667,248.186 245.426,248.015 245.122 C 247.838 244.804,247.169 244.619,246.197 244.619 C 245.352 244.619,244.563 244.462,244.444 244.269 C 244.325 244.077,243.311 243.920,242.190 243.920 C 240.498 243.920,240.123 243.809,239.982 243.269 C 239.888 242.911,239.384 242.511,238.862 242.380 C 238.339 242.249,237.298 241.754,236.548 241.281 C 235.798 240.807,234.866 240.420,234.478 240.420 C 233.502 240.420,232.371 239.199,232.371 238.145 C 232.371 237.664,232.213 237.270,232.021 237.270 C 231.819 237.270,231.671 236.158,231.671 234.634 C 231.671 232.048,232.764 229.921,234.093 229.921 C 234.256 229.921,234.636 229.546,234.937 229.087 C 236.070 227.357,246.709 227.131,247.332 228.823 C 247.613 229.587,248.129 229.909,249.081 229.916 C 249.514 229.919,249.869 230.101,249.869 230.320 C 249.869 230.858,250.950 231.646,251.706 231.660 C 252.085 231.667,252.318 231.942,252.318 232.382 C 252.318 232.773,252.555 233.183,252.843 233.294 C 253.132 233.405,253.368 233.709,253.368 233.969 C 253.368 234.229,253.800 235.157,254.328 236.031 L 255.288 237.620 258.528 237.620 C 260.454 237.620,261.767 237.478,261.767 237.270 C 261.767 237.078,262.250 236.920,262.840 236.920 C 264.171 236.920,265.267 236.361,265.267 235.683 C 265.267 235.301,265.713 235.171,267.017 235.171 C 267.979 235.171,268.766 235.024,268.766 234.845 C 268.766 234.666,269.121 234.469,269.554 234.408 C 270.379 234.290,271.030 229.221,270.221 229.221 C 270.041 229.221,269.791 228.670,269.664 227.997 C 269.538 227.323,269.284 226.772,269.101 226.772 C 268.917 226.772,268.766 226.535,268.766 226.247 C 268.766 225.920,268.436 225.722,267.892 225.722 C 267.165 225.722,267.017 225.554,267.017 224.735 C 267.017 223.760,265.392 221.522,264.684 221.522 C 264.494 221.522,263.969 221.129,263.517 220.647 C 263.065 220.166,262.486 219.773,262.231 219.773 C 261.976 219.773,261.766 219.576,261.765 219.335 C 261.761 218.817,260.182 218.023,259.156 218.023 C 258.743 218.023,258.286 217.686,258.088 217.235 C 257.878 216.757,257.375 216.405,256.806 216.340 C 256.291 216.280,255.681 216.005,255.451 215.727 C 255.218 215.447,254.430 215.223,253.675 215.223 C 252.929 215.223,252.318 215.066,252.318 214.873 C 252.318 214.648,248.644 214.523,241.995 214.523 C 235.346 214.523,231.671 214.648,231.671 214.873 " stroke="none" fill="#fbfbfb" fill-rule="evenodd"></path><path id="path3" d="M82.940 96.794 C 76.124 98.959,76.872 98.692,73.491 100.178 C 67.667 102.739,57.043 113.028,57.043 116.109 C 57.043 116.312,56.819 116.925,56.546 117.469 C 55.964 118.629,55.252 120.498,54.369 123.185 C 52.783 128.010,53.513 142.272,55.511 145.482 C 55.776 145.908,55.993 146.494,55.993 146.784 C 55.993 147.459,57.174 149.780,58.765 152.231 C 64.849 161.605,76.428 168.473,86.789 168.853 L 89.414 168.949 87.139 168.677 C 67.092 166.278,54.178 152.260,54.095 132.808 C 54.067 126.239,54.141 125.749,56.049 119.907 C 59.700 108.730,69.754 100.557,84.047 97.145 C 91.524 95.360,104.779 96.724,112.496 100.072 C 121.654 104.046,132.625 116.759,127.783 117.788 C 127.275 117.895,126.465 118.151,125.984 118.355 C 125.503 118.559,124.637 118.850,124.059 119.001 C 123.482 119.152,121.672 119.761,120.038 120.355 C 115.869 121.870,115.528 121.825,114.287 119.597 C 109.953 111.817,96.350 106.482,88.189 109.361 C 87.371 109.650,86.397 109.886,86.026 109.886 C 85.341 109.886,83.297 110.712,80.552 112.097 C 68.874 117.992,65.606 137.254,74.495 147.792 C 76.941 150.692,81.871 154.331,83.353 154.331 C 83.626 154.331,83.999 154.473,84.182 154.647 C 86.134 156.503,96.404 157.040,101.837 155.571 C 107.471 154.048,114.257 149.237,116.273 145.337 C 118.403 141.217,118.080 141.278,125.187 143.654 C 132.578 146.125,132.414 145.972,130.870 148.992 C 126.663 157.218,119.405 163.266,109.536 166.769 C 107.660 167.435,103.809 168.315,101.137 168.689 C 99.244 168.954,99.253 168.956,101.662 168.855 C 106.463 168.653,116.878 165.026,118.591 162.959 C 118.855 162.640,119.221 162.380,119.405 162.380 C 120.764 162.380,126.831 156.379,129.323 152.570 C 133.281 146.520,133.234 145.663,128.870 144.358 C 127.187 143.855,125.568 143.314,125.273 143.157 C 124.978 143.000,124.190 142.754,123.523 142.611 C 122.856 142.468,122.152 142.228,121.960 142.078 C 119.942 140.503,117.801 141.242,116.411 143.994 C 114.061 148.646,105.630 155.011,101.784 155.036 C 101.332 155.039,100.332 155.268,99.563 155.545 C 96.752 156.558,89.949 156.106,85.564 154.617 C 84.987 154.420,84.122 154.171,83.642 154.063 C 83.163 153.955,82.023 153.341,81.109 152.699 C 80.195 152.057,79.303 151.531,79.126 151.531 C 78.395 151.531,74.092 146.744,72.882 144.585 C 67.592 135.144,69.283 122.775,76.870 115.416 C 78.816 113.529,84.977 110.243,86.605 110.224 C 87.188 110.217,88.058 109.986,88.539 109.711 C 89.784 108.999,96.863 108.999,98.567 109.711 C 99.258 110.000,100.215 110.236,100.694 110.236 C 103.750 110.236,110.585 114.909,112.979 118.635 C 113.659 119.694,114.423 120.768,114.676 121.022 C 114.929 121.277,115.136 121.638,115.136 121.826 C 115.136 122.290,117.405 121.855,119.228 121.041 C 120.036 120.680,121.090 120.385,121.570 120.385 C 122.050 120.385,122.530 120.245,122.635 120.075 C 122.741 119.904,123.419 119.653,124.143 119.518 C 124.867 119.382,125.853 119.059,126.334 118.801 C 126.815 118.543,127.638 118.240,128.161 118.129 C 130.362 117.662,130.168 116.429,127.162 111.797 C 124.050 107.000,116.711 100.808,112.662 99.563 C 112.194 99.420,111.654 99.182,111.461 99.035 C 111.269 98.889,110.560 98.653,109.886 98.513 C 109.213 98.372,108.504 98.135,108.311 97.987 C 106.161 96.329,87.206 95.438,82.940 96.794 M93.526 169.270 C 93.863 169.358,94.414 169.358,94.751 169.270 C 95.087 169.182,94.812 169.110,94.138 169.110 C 93.465 169.110,93.189 169.182,93.526 169.270 M80.015 213.298 C 79.726 213.587,79.036 213.823,78.482 213.823 C 77.928 213.823,77.168 214.054,76.795 214.337 C 76.421 214.620,75.864 214.856,75.557 214.862 C 75.250 214.868,74.714 215.188,74.366 215.573 C 74.017 215.958,73.471 216.273,73.151 216.273 C 72.431 216.273,66.142 222.629,66.142 223.357 C 66.142 223.648,65.906 224.082,65.617 224.322 C 65.328 224.562,65.092 225.034,65.092 225.372 C 65.092 225.710,64.856 226.182,64.567 226.422 C 63.804 227.055,63.814 239.215,64.578 240.224 C 64.861 240.598,65.092 241.119,65.092 241.382 C 65.092 242.262,70.063 248.119,70.811 248.119 C 70.987 248.119,71.741 248.670,72.487 249.344 C 73.233 250.017,74.140 250.569,74.504 250.569 C 74.868 250.569,75.256 250.805,75.367 251.094 C 75.499 251.436,76.043 251.619,76.937 251.619 C 77.726 251.619,78.489 251.841,78.740 252.143 C 78.980 252.432,79.696 252.668,80.333 252.668 C 80.969 252.668,81.726 252.905,82.015 253.193 C 82.303 253.482,82.730 253.718,82.962 253.718 C 83.194 253.718,82.984 253.403,82.494 253.018 C 81.991 252.623,81.074 252.318,80.385 252.318 C 79.623 252.318,79.089 252.121,78.964 251.794 C 78.832 251.451,78.287 251.269,77.394 251.269 C 76.605 251.269,75.842 251.046,75.591 250.744 C 75.351 250.455,74.884 250.219,74.553 250.219 C 73.647 250.219,66.262 242.921,65.635 241.406 C 65.342 240.698,64.943 240.019,64.747 239.898 C 64.141 239.524,64.306 227.440,64.928 226.617 C 65.211 226.244,65.442 225.648,65.442 225.294 C 65.442 224.940,65.678 224.559,65.967 224.449 C 66.255 224.338,66.492 223.929,66.492 223.540 C 66.492 222.657,72.326 216.623,73.179 216.623 C 73.516 216.623,74.027 216.387,74.316 216.098 C 74.604 215.809,75.067 215.573,75.343 215.573 C 75.620 215.573,76.247 215.258,76.736 214.873 C 77.225 214.488,78.093 214.173,78.665 214.173 C 79.237 214.173,79.904 213.932,80.149 213.638 C 80.532 213.176,81.953 213.116,90.482 213.201 C 95.921 213.254,100.298 213.180,100.209 213.036 C 99.864 212.479,80.583 212.730,80.015 213.298 M101.737 214.151 C 102.548 214.284,103.506 214.658,103.864 214.982 C 104.223 215.307,104.741 215.578,105.014 215.584 C 105.288 215.590,105.818 215.827,106.191 216.109 C 106.565 216.392,107.116 216.630,107.416 216.638 C 107.716 216.646,108.348 217.118,108.820 217.688 C 109.292 218.257,109.950 218.723,110.282 218.723 C 110.953 218.723,113.048 220.578,114.314 222.294 C 114.768 222.910,115.136 223.177,115.136 222.892 C 115.136 222.207,111.242 218.373,110.547 218.373 C 110.248 218.373,109.544 217.905,108.982 217.333 C 108.421 216.760,107.725 216.285,107.437 216.275 C 107.148 216.265,106.518 215.949,106.037 215.573 C 105.556 215.197,104.926 214.880,104.637 214.870 C 104.348 214.859,103.806 214.620,103.433 214.337 C 103.059 214.054,102.193 213.843,101.508 213.867 L 100.262 213.911 101.737 214.151 M93.740 224.994 C 94.194 225.394,95.001 225.722,95.534 225.722 C 96.067 225.722,96.698 225.958,96.938 226.247 C 97.177 226.535,97.642 226.772,97.970 226.772 C 98.771 226.772,103.587 231.576,103.587 232.376 C 103.587 234.365,107.687 235.568,109.536 234.121 C 110.017 233.744,110.904 233.433,111.506 233.429 C 112.108 233.424,112.796 233.185,113.036 232.896 C 113.311 232.565,114.082 232.371,115.124 232.371 C 117.814 232.371,120.184 228.820,118.280 227.643 C 118.085 227.523,117.699 226.883,117.423 226.223 C 117.147 225.562,116.773 225.022,116.591 225.022 C 116.250 225.022,117.304 227.330,117.931 227.957 C 119.388 229.414,117.567 232.021,115.092 232.021 C 114.227 232.021,113.214 232.252,112.840 232.535 C 112.467 232.817,111.674 233.054,111.078 233.060 C 110.432 233.066,109.726 233.368,109.329 233.807 C 107.982 235.295,103.937 234.002,103.937 232.084 C 103.937 231.346,98.968 226.422,98.223 226.422 C 97.948 226.422,97.527 226.185,97.288 225.897 C 97.048 225.608,96.355 225.372,95.748 225.372 C 95.141 225.372,94.255 225.123,93.779 224.819 L 92.913 224.266 93.740 224.994 M80.741 227.394 L 78.740 229.417 78.740 232.933 L 78.740 236.449 80.711 238.271 C 83.271 240.637,83.486 240.411,81.006 237.962 L 79.090 236.069 79.090 232.721 L 79.090 229.372 80.927 227.572 C 82.098 226.425,83.146 225.718,83.815 225.624 L 84.864 225.477 83.804 225.424 C 82.943 225.382,82.366 225.753,80.741 227.394 M84.260 240.771 C 84.891 241.155,85.856 241.470,86.405 241.470 C 86.954 241.470,87.599 241.706,87.839 241.995 C 88.079 242.283,88.772 242.520,89.379 242.520 C 89.986 242.520,90.833 242.765,91.261 243.065 C 91.767 243.419,92.559 243.563,93.526 243.476 L 95.013 243.342 93.438 243.270 C 92.572 243.230,91.558 242.966,91.184 242.684 C 90.811 242.401,90.102 242.165,89.609 242.159 C 89.117 242.152,88.408 241.916,88.035 241.634 C 87.661 241.351,86.853 241.120,86.240 241.120 C 85.627 241.120,84.929 240.884,84.689 240.595 C 84.450 240.306,83.997 240.071,83.684 240.071 C 83.349 240.072,83.587 240.361,84.260 240.771 M95.839 244.281 C 96.294 244.660,97.090 244.969,97.610 244.969 C 98.129 244.969,98.860 245.201,99.233 245.483 C 99.620 245.776,100.688 246.002,101.712 246.008 C 102.982 246.016,103.572 246.174,103.714 246.544 C 103.845 246.887,104.390 247.069,105.283 247.069 C 106.072 247.069,106.835 247.291,107.087 247.594 C 107.326 247.883,107.754 248.119,108.037 248.119 C 108.320 248.119,108.951 248.434,109.441 248.819 C 109.930 249.204,110.526 249.519,110.765 249.519 C 111.005 249.519,111.396 249.755,111.636 250.044 C 111.876 250.332,112.355 250.569,112.702 250.569 C 113.631 250.569,118.285 255.203,118.285 256.129 C 118.285 256.547,118.521 256.981,118.810 257.091 C 119.099 257.202,119.335 257.561,119.335 257.888 C 119.335 258.216,119.566 258.790,119.849 259.163 C 120.591 260.145,120.591 269.689,119.849 270.671 C 119.566 271.044,119.335 271.615,119.335 271.940 C 119.335 272.265,119.099 272.726,118.810 272.966 C 118.521 273.205,118.285 273.668,118.285 273.993 C 118.285 274.318,117.813 275.037,117.235 275.591 C 116.658 276.144,116.185 276.851,116.185 277.162 C 116.185 277.931,113.428 280.665,112.652 280.665 C 112.308 280.665,111.938 280.810,111.828 280.987 C 111.553 281.433,108.496 283.115,107.960 283.115 C 107.719 283.115,107.326 283.351,107.087 283.640 C 106.847 283.928,106.375 284.164,106.037 284.164 C 105.699 284.164,105.226 284.401,104.987 284.689 C 104.741 284.985,103.978 285.214,103.237 285.214 C 102.496 285.214,101.733 285.443,101.487 285.739 C 100.849 286.509,84.504 286.499,83.485 285.728 C 83.112 285.446,82.068 285.214,81.166 285.214 C 80.135 285.214,79.364 285.019,79.090 284.689 C 78.851 284.401,78.378 284.164,78.040 284.164 C 77.702 284.164,77.230 283.928,76.990 283.640 C 76.751 283.351,76.377 283.120,76.160 283.126 C 75.510 283.145,77.366 284.514,78.042 284.514 C 78.385 284.514,78.756 284.751,78.867 285.039 C 79.011 285.416,79.601 285.564,80.961 285.564 C 82.217 285.564,83.001 285.741,83.290 286.089 C 83.929 286.860,100.972 286.849,101.992 286.078 C 102.365 285.796,103.015 285.564,103.434 285.564 C 104.653 285.564,109.747 283.283,111.629 281.895 C 112.285 281.411,112.996 281.015,113.208 281.015 C 114.323 281.015,119.685 273.571,119.685 272.022 C 119.685 271.756,120.012 271.095,120.412 270.554 C 121.408 269.207,121.318 260.189,120.297 259.063 C 119.961 258.692,119.685 258.144,119.685 257.846 C 119.685 257.547,119.449 257.108,119.160 256.868 C 118.871 256.628,118.635 256.180,118.635 255.871 C 118.635 255.005,113.711 250.219,112.820 250.219 C 112.402 250.219,111.970 249.983,111.859 249.694 C 111.749 249.405,111.377 249.165,111.035 249.161 C 110.692 249.157,110.017 248.845,109.536 248.469 C 109.055 248.093,108.405 247.781,108.092 247.777 C 107.779 247.773,107.326 247.533,107.087 247.244 C 106.840 246.947,106.077 246.719,105.331 246.719 C 104.481 246.719,103.940 246.532,103.810 246.194 C 103.668 245.822,103.087 245.669,101.816 245.669 C 100.553 245.669,99.760 245.462,99.133 244.969 C 98.644 244.584,97.801 244.269,97.261 244.269 C 96.721 244.269,96.182 244.112,96.063 243.920 C 95.944 243.727,95.659 243.575,95.430 243.581 C 95.201 243.588,95.385 243.903,95.839 244.281 M85.485 254.418 C 86.104 254.905,86.905 255.118,88.114 255.118 C 89.233 255.118,90.008 255.305,90.289 255.643 C 90.564 255.975,91.336 256.168,92.388 256.168 C 93.441 256.168,94.213 256.361,94.488 256.693 C 94.734 256.989,95.497 257.218,96.238 257.218 C 96.979 257.218,97.742 257.447,97.988 257.743 C 98.227 258.031,98.583 258.268,98.778 258.268 C 98.973 258.268,98.732 257.953,98.242 257.568 C 97.753 257.183,96.885 256.868,96.313 256.868 C 95.741 256.868,95.078 256.632,94.838 256.343 C 94.564 256.013,93.793 255.818,92.762 255.818 C 91.860 255.818,90.817 255.587,90.443 255.304 C 90.051 255.008,88.983 254.786,87.916 254.779 C 86.603 254.771,86.009 254.616,85.866 254.243 C 85.755 253.955,85.424 253.718,85.130 253.718 C 84.768 253.718,84.884 253.945,85.485 254.418 M100.262 258.968 C 100.611 259.353,101.147 259.668,101.454 259.669 C 102.158 259.671,104.637 261.921,104.637 262.557 C 104.637 262.819,104.868 263.339,105.151 263.713 C 105.846 264.632,105.853 267.843,105.162 268.416 C 104.873 268.656,104.637 269.116,104.637 269.438 C 104.637 270.053,102.390 272.395,101.487 272.721 C 101.120 272.854,101.178 272.919,101.679 272.938 C 102.604 272.974,104.987 270.538,104.987 269.556 C 104.987 269.141,105.240 268.660,105.549 268.487 C 106.502 267.954,106.612 265.166,105.729 263.927 C 105.321 263.353,104.987 262.698,104.987 262.470 C 104.987 261.734,102.452 259.355,101.430 259.130 C 100.884 259.010,100.437 258.767,100.437 258.590 C 100.437 258.413,100.256 258.268,100.033 258.268 C 99.804 258.268,99.903 258.571,100.262 258.968 M69.837 263.003 C 69.463 263.286,68.736 263.517,68.222 263.517 C 67.707 263.517,66.886 263.832,66.396 264.217 C 65.907 264.602,65.039 264.917,64.467 264.917 C 63.895 264.917,63.232 265.153,62.992 265.442 C 62.753 265.731,62.199 265.967,61.762 265.967 C 60.515 265.967,59.996 268.578,61.067 269.466 C 61.356 269.706,61.592 270.098,61.592 270.337 C 61.592 270.576,61.907 271.172,62.292 271.662 C 62.677 272.151,62.992 272.804,62.992 273.113 C 62.992 273.926,70.190 281.015,71.016 281.015 C 71.392 281.015,71.798 281.174,71.918 281.367 C 72.037 281.561,72.768 282.025,73.541 282.399 C 74.467 282.846,74.807 282.911,74.540 282.589 C 74.111 282.072,71.403 280.665,70.837 280.665 C 70.263 280.665,63.342 273.509,63.342 272.915 C 63.342 272.605,63.116 272.164,62.840 271.935 C 62.563 271.705,62.239 271.069,62.118 270.521 C 61.998 269.973,61.663 269.434,61.374 269.323 C 60.529 268.999,60.895 266.943,61.884 266.453 C 62.334 266.230,62.877 265.872,63.092 265.657 C 63.306 265.443,63.972 265.267,64.570 265.267 C 65.168 265.267,65.964 265.036,66.337 264.753 C 66.711 264.470,67.428 264.234,67.932 264.228 C 68.435 264.222,69.247 263.902,69.737 263.517 C 71.266 262.314,74.191 263.255,74.191 264.949 C 74.191 265.868,81.230 272.975,82.104 272.938 C 82.594 272.918,82.629 272.862,82.240 272.724 C 81.350 272.407,74.541 265.488,74.541 264.901 C 74.541 263.161,71.338 261.868,69.837 263.003 M83.591 273.638 C 84.045 274.038,84.616 274.366,84.860 274.366 C 85.104 274.366,85.500 274.602,85.739 274.891 C 87.049 276.469,99.812 275.228,100.565 273.449 C 100.760 272.988,98.135 274.195,97.814 274.713 C 97.429 275.336,86.108 275.173,85.866 274.541 C 85.755 274.252,85.401 274.016,85.080 274.016 C 84.758 274.016,84.106 273.767,83.630 273.463 L 82.765 272.910 83.591 273.638 " stroke="none" fill="#afb6be" fill-rule="evenodd"></path><path id="path4" d="M83.815 97.176 C 74.533 99.478,69.080 102.390,63.688 107.924 C 58.843 112.897,57.051 116.158,54.724 124.234 C 53.278 129.252,53.880 139.217,56.013 145.582 C 60.005 157.493,73.922 167.810,86.964 168.527 C 89.365 168.659,88.804 168.475,83.640 167.436 C 74.226 165.543,66.313 160.775,61.142 153.881 C 59.300 151.425,56.343 145.951,56.343 144.997 C 56.343 144.736,56.193 144.249,56.009 143.915 C 53.841 139.975,54.175 126.371,56.599 119.878 C 60.170 110.314,69.670 101.478,79.090 98.959 C 90.925 95.795,102.732 96.291,111.562 100.323 C 112.965 100.963,114.207 101.487,114.323 101.487 C 115.780 101.487,124.056 108.684,125.865 111.525 C 126.210 112.067,126.576 112.590,126.676 112.686 C 128.276 114.212,128.571 117.585,127.105 117.585 C 126.773 117.585,124.456 118.307,121.956 119.190 C 115.429 121.493,115.728 121.482,114.745 119.456 C 108.540 106.682,86.494 104.444,75.576 115.482 C 73.129 117.956,72.553 118.841,70.302 123.588 C 68.329 127.750,68.332 137.599,70.308 141.679 C 70.462 141.997,70.879 142.887,71.234 143.657 C 79.337 161.211,108.359 161.472,117.588 144.074 C 118.756 141.873,119.370 141.835,123.710 143.700 C 124.287 143.948,126.155 144.622,127.862 145.198 C 132.011 146.599,131.989 146.415,128.635 151.701 C 121.954 162.227,110.308 168.015,94.488 168.671 L 89.064 168.896 93.788 168.947 C 99.998 169.014,105.277 168.284,109.536 166.770 C 119.416 163.258,126.663 157.218,130.870 148.992 C 132.414 145.972,132.578 146.125,125.187 143.654 C 118.080 141.278,118.403 141.217,116.273 145.337 C 114.257 149.237,107.471 154.048,101.837 155.571 C 96.404 157.040,86.134 156.503,84.182 154.647 C 83.999 154.473,83.626 154.331,83.353 154.331 C 81.871 154.331,76.941 150.692,74.495 147.792 C 65.606 137.254,68.874 117.992,80.552 112.097 C 83.297 110.712,85.341 109.886,86.026 109.886 C 86.397 109.886,87.371 109.650,88.189 109.361 C 96.350 106.482,109.953 111.817,114.287 119.597 C 115.528 121.825,115.869 121.870,120.038 120.355 C 121.672 119.761,123.482 119.152,124.059 119.001 C 124.637 118.850,125.503 118.559,125.984 118.355 C 126.465 118.151,127.275 117.895,127.783 117.788 C 129.571 117.408,129.347 116.088,126.822 112.117 C 122.079 104.657,114.187 99.625,103.362 97.158 C 99.992 96.390,86.937 96.402,83.815 97.176 " stroke="none" fill="#949faf" fill-rule="evenodd"></path></g></svg>